<svg width="139" height="36" viewBox="0 0 139 36" fill="none" xmlns="http://www.w3.org/2000/svg">
<rect width="139" height="36" rx="18" fill="white"/>
<g clip-path="url(#clip0_57_1213)">
<path d="M40.3417 11.5684V13.9746H34.5712V16.9071H40.3417V19.3131H34.5712V24.6987H31.2998V11.5684H40.3417Z" fill="#218455"/>
<path d="M51.6445 12.4153V14.9814C49.9023 14.1982 48.5144 13.8064 47.4808 13.8062C46.9947 13.7832 46.5108 13.8853 46.0754 14.1027C45.9235 14.1712 45.794 14.2812 45.7018 14.42C45.6096 14.5589 45.5584 14.7209 45.5542 14.8876C45.5617 15.0266 45.5992 15.1624 45.6641 15.2856C45.7289 15.4088 45.8197 15.5166 45.9301 15.6015C46.1805 15.827 46.7914 16.1183 47.7628 16.4756C48.5601 16.7581 49.3386 17.0909 50.0938 17.4719C50.6864 17.7873 51.2015 18.2302 51.6021 18.7689C52.0429 19.3837 52.2662 20.128 52.2367 20.8839C52.2554 21.4437 52.1392 21.9998 51.8979 22.5053C51.6565 23.0107 51.2971 23.4507 50.85 23.7881C49.926 24.5086 48.7089 24.8688 47.1988 24.8686C45.5369 24.8601 43.9053 24.4231 42.4616 23.5999V20.7714C43.192 21.2798 43.9732 21.7111 44.7926 22.0584C45.4776 22.3296 46.2083 22.4669 46.945 22.4629C48.2295 22.4629 48.8719 22.059 48.872 21.2511C48.8656 21.1014 48.828 20.9546 48.7616 20.8203C48.6951 20.686 48.6013 20.5671 48.4862 20.4712C48.2287 20.227 47.6098 19.9296 46.6294 19.5791C45.8316 19.3059 45.0529 18.9795 44.2988 18.6019C43.713 18.2902 43.2054 17.8497 42.8142 17.3137C42.3765 16.687 42.1569 15.9338 42.1891 15.17C42.1772 14.6383 42.2951 14.1118 42.5326 13.636C42.7701 13.1602 43.1201 12.7495 43.5521 12.4395C44.4608 11.7463 45.6763 11.4 47.1988 11.4004C48.7347 11.4299 50.248 11.7753 51.6445 12.4153Z" fill="#218455"/>
<path d="M63.0781 12.4153V14.9814C61.3359 14.1982 59.948 13.8064 58.9144 13.8062C58.4283 13.7832 57.9444 13.8853 57.509 14.1027C57.3571 14.1712 57.2276 14.2812 57.1354 14.42C57.0432 14.5589 56.992 14.7209 56.9879 14.8876C56.9954 15.0266 57.0328 15.1624 57.0977 15.2856C57.1626 15.4088 57.2533 15.5166 57.3637 15.6015C57.6141 15.827 58.225 16.1183 59.1964 16.4756C59.9937 16.7581 60.7722 17.0909 61.5274 17.4719C62.12 17.7873 62.6351 18.2302 63.0357 18.7689C63.4765 19.3837 63.6998 20.128 63.6703 20.8839C63.689 21.4437 63.5728 21.9998 63.3315 22.5053C63.0902 23.0107 62.7308 23.4507 62.2836 23.7881C61.3596 24.5086 60.1425 24.8688 58.6324 24.8686C56.9705 24.8601 55.3389 24.4231 53.8952 23.5999V20.7714C54.6256 21.2798 55.4068 21.7111 56.2262 22.0584C56.9112 22.3296 57.6419 22.4669 58.3787 22.4629C59.6631 22.4629 60.3055 22.059 60.3056 21.2511C60.2992 21.1014 60.2616 20.9546 60.1952 20.8203C60.1287 20.686 60.0349 20.5671 59.9198 20.4712C59.6623 20.227 59.0434 19.9296 58.063 19.5791C57.2652 19.3059 56.4865 18.9795 55.7324 18.6019C55.1466 18.2902 54.639 17.8497 54.2477 17.3137C53.8101 16.687 53.5905 15.9338 53.6227 15.17C53.6108 14.6383 53.7287 14.1118 53.9662 13.636C54.2037 13.1602 54.5537 12.7495 54.9857 12.4395C55.8944 11.7463 57.1099 11.4 58.6324 11.4004C60.1682 11.4299 61.6816 11.7754 63.0781 12.4153Z" fill="#218455"/>
<path d="M77.839 20.6958V23.5626C76.2539 24.4191 74.4807 24.868 72.679 24.8687C70.3484 24.8687 68.4922 24.225 67.1104 22.9376C66.4474 22.3263 65.9204 21.5825 65.5634 20.7544C65.2064 19.9263 65.0274 19.0325 65.038 18.1308C65.0487 17.2291 65.2487 16.3397 65.6252 15.5203C66.0017 14.7009 66.5461 13.9698 67.2233 13.3743C68.6802 12.0582 70.5833 11.4003 72.9328 11.4004C74.8066 11.4004 76.3919 11.7858 77.6887 12.5566V15.479C76.0969 14.5836 74.5899 14.1358 73.1678 14.1355C71.7704 14.1355 70.6286 14.5098 69.7425 15.2585C69.3168 15.6022 68.9755 16.0388 68.7448 16.535C68.5141 17.0312 68.4003 17.5736 68.4119 18.1206C68.3998 18.6692 68.5114 19.2134 68.7385 19.713C68.9655 20.2125 69.3021 20.6545 69.7234 21.0061C70.5972 21.764 71.7171 22.143 73.0831 22.1431C73.7441 22.1452 74.4021 22.0552 75.0383 21.8757C76.0018 21.5576 76.9383 21.1631 77.839 20.6958Z" fill="#218455"/>
<path d="M91.3121 22.9894C91.3799 22.9881 91.4472 23.0003 91.5101 23.0253C91.5731 23.0503 91.6304 23.0877 91.6788 23.1351C91.7283 23.1831 91.7673 23.241 91.7932 23.3049C91.8191 23.3688 91.8313 23.4375 91.8291 23.5064V23.8445C91.8296 23.9125 91.8166 23.98 91.7908 24.0429C91.765 24.1059 91.7269 24.163 91.6788 24.2112C91.6307 24.2593 91.5735 24.2973 91.5105 24.3231C91.4476 24.349 91.3801 24.362 91.3121 24.3615H83.4075C83.3396 24.3628 83.2722 24.3497 83.2097 24.323C83.1473 24.2963 83.0913 24.2566 83.0453 24.2066C82.9499 24.1068 82.8977 23.9734 82.9 23.8353C82.9042 23.5505 82.9389 23.2669 83.0034 22.9894C83.065 22.729 83.1564 22.4767 83.2758 22.2373C83.4 22.0228 83.5366 21.8158 83.6849 21.6173C83.8468 21.4009 84.0243 21.1968 84.216 21.0064C84.4166 20.8058 84.6233 20.6178 84.8361 20.4424C85.0491 20.2667 85.2652 20.0976 85.4843 19.9349C85.7036 19.7783 85.9245 19.6216 86.1471 19.4648C86.3693 19.3082 86.5903 19.1579 86.8099 19.0138C87.2672 18.7127 87.6916 18.4042 88.0832 18.0881C88.4753 17.7717 88.8497 17.4441 89.2066 17.1055C89.4898 16.8298 89.7207 16.5051 89.8881 16.147C90.042 15.8069 90.1267 15.4396 90.1373 15.0665C90.1373 14.728 90.0717 14.3928 89.9441 14.0793C89.8306 13.8025 89.6516 13.5574 89.4225 13.365C88.831 12.9456 88.1171 12.734 87.3926 12.7633C86.9395 12.7603 86.4895 12.8368 86.0628 12.9892C85.7137 13.1122 85.4037 13.3263 85.165 13.6092C84.6733 14.2945 84.4282 15.1261 84.4694 15.9685C84.4707 16.0355 84.4586 16.102 84.4336 16.1642C84.4086 16.2264 84.3713 16.2829 84.3239 16.3302C84.2766 16.3776 84.2201 16.415 84.158 16.44C84.0958 16.4651 84.0293 16.4773 83.9623 16.476H83.6047C83.5377 16.4772 83.4712 16.465 83.409 16.4399C83.3469 16.4149 83.2904 16.3776 83.243 16.3302C83.1956 16.2828 83.1583 16.2263 83.1333 16.1642C83.1082 16.102 83.096 16.0355 83.0972 15.9685C83.1159 12.9609 84.5477 11.4383 87.3926 11.4007C87.9243 11.3951 88.4537 11.4711 88.9624 11.6262C89.4309 11.7727 89.8722 11.9949 90.2689 12.284C91.0833 12.9231 91.4968 13.8569 91.5094 15.0852C91.4981 15.612 91.3815 16.1312 91.1663 16.6122C90.9474 17.1023 90.6472 17.5519 90.2784 17.9419C89.9038 18.3281 89.51 18.6953 89.0986 19.042C88.6743 19.4 88.2269 19.7296 87.7593 20.0288H87.7684C86.9288 20.5837 86.1194 21.183 85.3435 21.8241H85.3531C84.9588 22.1371 84.6407 22.5355 84.4228 22.9894H91.3121Z" fill="#87888A"/>
<path d="M101.825 22.9894C101.892 22.9881 101.96 23.0003 102.023 23.0253C102.086 23.0503 102.143 23.0877 102.191 23.1351C102.241 23.1831 102.28 23.241 102.306 23.3049C102.332 23.3688 102.344 23.4375 102.342 23.5064V23.8445C102.342 23.9125 102.329 23.98 102.303 24.0429C102.278 24.1059 102.24 24.163 102.191 24.2112C102.143 24.2593 102.086 24.2973 102.023 24.3231C101.96 24.349 101.893 24.362 101.825 24.3615H93.9202C93.8523 24.3628 93.7849 24.3497 93.7224 24.323C93.66 24.2963 93.604 24.2566 93.558 24.2066C93.4626 24.1068 93.4104 23.9734 93.4127 23.8353C93.4169 23.5505 93.4516 23.2669 93.5161 22.9894C93.5777 22.729 93.6691 22.4767 93.7885 22.2373C93.9127 22.0228 94.0493 21.8158 94.1976 21.6173C94.3595 21.4009 94.537 21.1968 94.7287 21.0064C94.9293 20.8058 95.136 20.6178 95.3488 20.4424C95.5618 20.2667 95.7779 20.0976 95.997 19.9349C96.2163 19.7783 96.4372 19.6216 96.6598 19.4648C96.882 19.3082 97.103 19.1579 97.3226 19.0138C97.7799 18.7127 98.2043 18.4042 98.5959 18.0881C98.988 17.7717 99.3624 17.4441 99.7193 17.1055C100.002 16.8298 100.233 16.5051 100.401 16.147C100.555 15.8069 100.639 15.4396 100.65 15.0665C100.65 14.728 100.584 14.3928 100.457 14.0793C100.343 13.8025 100.164 13.5574 99.9352 13.365C99.3437 12.9456 98.6299 12.734 97.9053 12.7633C97.4523 12.7603 97.0022 12.8368 96.5755 12.9892C96.2264 13.1122 95.9164 13.3263 95.6777 13.6092C95.1862 14.2946 94.9411 15.1261 94.9821 15.9685C94.9835 16.0355 94.9713 16.102 94.9463 16.1642C94.9213 16.2264 94.884 16.2829 94.8366 16.3302C94.7893 16.3776 94.7328 16.415 94.6707 16.44C94.6086 16.4651 94.542 16.4773 94.475 16.476H94.1174C94.0504 16.4772 93.9839 16.465 93.9217 16.4399C93.8596 16.4149 93.8031 16.3776 93.7557 16.3302C93.7084 16.2828 93.671 16.2263 93.646 16.1642C93.6209 16.102 93.6087 16.0355 93.61 15.9685C93.6286 12.9609 95.0604 11.4383 97.9053 11.4007C98.437 11.3951 98.9665 11.4711 99.4751 11.6262C99.9436 11.7727 100.385 11.9949 100.782 12.284C101.596 12.9231 102.009 13.8569 102.022 15.0852C102.011 15.612 101.894 16.1312 101.679 16.6122C101.46 17.1023 101.16 17.5519 100.791 17.9419C100.416 18.3281 100.023 18.6953 99.6113 19.042C99.187 19.4 98.7396 19.7296 98.272 20.0288H98.2811C97.4416 20.5837 96.6321 21.183 95.8563 21.8241H95.8658C95.4715 22.1371 95.1534 22.5355 94.9355 22.9894H101.825Z" fill="#87888A"/>
<path d="M113.222 17.9891C113.232 18.7699 113.15 19.5492 112.977 20.3106C112.815 21.0184 112.559 21.7012 112.216 22.341C111.862 23.0197 111.323 23.5837 110.66 23.9668C109.927 24.3679 109.105 24.5779 108.269 24.5778C107.443 24.5763 106.632 24.3661 105.91 23.9668C105.251 23.5847 104.713 23.0243 104.359 22.3501C104.009 21.7063 103.747 21.0189 103.578 20.3061C103.4 19.547 103.315 18.7689 103.325 17.9891C103.315 17.2047 103.4 16.422 103.578 15.6581C103.748 14.941 104.01 14.249 104.359 13.5999C104.712 12.9275 105.25 12.3699 105.91 11.9928C106.634 11.5998 107.445 11.3961 108.269 11.4005C109.102 11.3941 109.923 11.5977 110.656 11.9928C111.315 12.3697 111.855 12.9232 112.216 13.5908C112.559 14.2422 112.815 14.9357 112.977 15.6536C113.15 16.4198 113.232 17.2037 113.222 17.9891ZM111.859 17.9891C111.858 17.6705 111.841 17.3521 111.807 17.0352C111.773 16.7001 111.73 16.3758 111.68 16.0622C111.62 15.763 111.54 15.4681 111.441 15.1793C111.346 14.902 111.225 14.6345 111.079 14.3803C110.552 13.3333 109.612 12.7944 108.259 12.7636C107.662 12.7512 107.073 12.9042 106.558 13.2054H106.567C106.345 13.3537 106.14 13.5271 105.956 13.722C105.769 13.9237 105.608 14.148 105.477 14.3898C105.331 14.6381 105.211 14.901 105.12 15.1743C105.023 15.4668 104.95 15.767 104.904 16.0718C104.628 17.3162 104.628 18.606 104.904 19.8505C104.952 20.1538 105.025 20.4524 105.125 20.7429C105.222 21.0253 105.343 21.2989 105.487 21.5607C105.73 22.0402 106.1 22.4436 106.558 22.7264C106.792 22.89 107.053 23.0109 107.329 23.0835C107.636 23.1615 107.952 23.1994 108.269 23.1961C108.59 23.1995 108.911 23.1616 109.223 23.0835C109.495 23.014 109.752 22.8927 109.979 22.7264C110.209 22.5883 110.42 22.419 110.604 22.2235C110.789 22.023 110.949 21.8004 111.079 21.5607C111.23 21.3019 111.353 21.0277 111.446 20.743C111.541 20.4501 111.619 20.1521 111.68 19.8505C111.73 19.537 111.772 19.2235 111.807 18.9103C111.841 18.6044 111.858 18.2969 111.859 17.9891Z" fill="#87888A"/>
<path d="M123.735 17.9891C123.745 18.7699 123.663 19.5492 123.49 20.3106C123.328 21.0184 123.072 21.7012 122.729 22.341C122.375 23.0197 121.836 23.5837 121.173 23.9668C120.44 24.3679 119.617 24.5779 118.781 24.5778C117.956 24.5763 117.145 24.3661 116.423 23.9668C115.764 23.5847 115.226 23.0243 114.871 22.3501C114.522 21.7063 114.26 21.0189 114.091 20.3061C113.912 19.547 113.827 18.7689 113.838 17.9891C113.827 17.2047 113.912 16.422 114.091 15.6581C114.26 14.941 114.523 14.249 114.871 13.5999C115.225 12.9275 115.763 12.3699 116.423 11.9928C117.146 11.5998 117.958 11.3961 118.781 11.4005C119.614 11.3941 120.435 11.5977 121.168 11.9928C121.827 12.3697 122.368 12.9232 122.729 13.5908C123.071 14.2422 123.327 14.9357 123.49 15.6536C123.662 16.4199 123.744 17.2037 123.735 17.9891ZM122.372 17.9891C122.37 17.6705 122.353 17.3521 122.32 17.0352C122.285 16.7001 122.243 16.3758 122.193 16.0622C122.132 15.763 122.052 15.4681 121.953 15.1793C121.859 14.902 121.737 14.6345 121.592 14.3803C121.065 13.3333 120.125 12.7944 118.772 12.7636C118.175 12.7512 117.586 12.9042 117.07 13.2054H117.08C116.857 13.3537 116.652 13.5271 116.469 13.722C116.282 13.9237 116.121 14.148 115.99 14.3898C115.844 14.6381 115.724 14.901 115.633 15.1743C115.535 15.4668 115.463 15.767 115.417 16.0718C115.141 17.3162 115.141 18.606 115.417 19.8505C115.464 20.1538 115.538 20.4524 115.637 20.7429C115.734 21.0253 115.856 21.2989 115.999 21.5607C116.243 22.0402 116.613 22.4436 117.07 22.7264C117.304 22.89 117.565 23.0109 117.842 23.0835C118.149 23.1615 118.465 23.1994 118.781 23.1961C119.103 23.1995 119.423 23.1616 119.735 23.0835C120.008 23.014 120.265 22.8927 120.492 22.7264C120.722 22.5883 120.933 22.419 121.117 22.2235C121.302 22.023 121.461 21.8004 121.592 21.5607C121.743 21.3019 121.865 21.0277 121.958 20.743C122.053 20.4501 122.132 20.1521 122.193 19.8505C122.243 19.537 122.285 19.2235 122.32 18.9103C122.354 18.6044 122.371 18.2969 122.372 17.9891Z" fill="#87888A"/>
<path d="M134.247 17.9891C134.258 18.7699 134.176 19.5492 134.003 20.3106C133.841 21.0184 133.585 21.7012 133.241 22.341C132.888 23.0197 132.348 23.5837 131.686 23.9668C130.952 24.3679 130.13 24.5779 129.294 24.5778C128.469 24.5763 127.657 24.3661 126.935 23.9668C126.276 23.5847 125.739 23.0243 125.384 22.3501C125.035 21.7063 124.772 21.0189 124.604 20.3061C124.425 19.547 124.34 18.7689 124.35 17.9891C124.34 17.2047 124.425 16.422 124.604 15.6581C124.773 14.941 125.035 14.249 125.384 13.5999C125.738 12.9275 126.276 12.3699 126.935 11.9928C127.659 11.5998 128.47 11.3961 129.294 11.4005C130.127 11.3941 130.948 11.5977 131.681 11.9928C132.34 12.3697 132.88 12.9232 133.241 13.5908C133.584 14.2422 133.84 14.9357 134.003 15.6536C134.175 16.4198 134.257 17.2037 134.247 17.9891ZM132.884 17.9891C132.883 17.6705 132.866 17.3521 132.833 17.0352C132.798 16.7001 132.756 16.3758 132.706 16.0622C132.645 15.763 132.565 15.4681 132.466 15.1793C132.371 14.902 132.25 14.6345 132.104 14.3803C131.577 13.3333 130.637 12.7944 129.285 12.7636C128.688 12.7512 128.099 12.9042 127.583 13.2054H127.593C127.37 13.3537 127.165 13.5271 126.982 13.722C126.795 13.9237 126.634 14.148 126.503 14.3898C126.356 14.6381 126.237 14.901 126.145 15.1743C126.048 15.4668 125.976 15.767 125.929 16.0718C125.654 17.3162 125.654 18.606 125.929 19.8505C125.977 20.1538 126.051 20.4524 126.15 20.7429C126.247 21.0253 126.368 21.2989 126.512 21.5607C126.755 22.0402 127.126 22.4436 127.583 22.7264C127.817 22.89 128.078 23.0109 128.354 23.0835C128.661 23.1615 128.977 23.1994 129.294 23.1961C129.616 23.1995 129.936 23.1616 130.248 23.0835C130.521 23.014 130.777 22.8927 131.004 22.7264C131.235 22.5883 131.445 22.419 131.63 22.2235C131.815 22.023 131.974 21.8004 132.104 21.5607C132.255 21.3019 132.378 21.0277 132.471 20.743C132.566 20.4501 132.644 20.1521 132.706 19.8505C132.756 19.537 132.798 19.2235 132.833 18.9103C132.867 18.6044 132.884 18.2969 132.884 17.9891Z" fill="#87888A"/>
<path d="M23.8336 9.54025C19.9789 5.59626 14.0817 4.89938 9.3578 7.69223C3.8444 10.9523 2.47768 18.2967 5.76305 23.5875C5.84029 23.712 6.25185 23.5925 6.20367 23.4338C5.67187 21.7434 5.53866 19.9528 5.81447 18.2023C6.09027 16.4518 6.7676 14.7889 7.7934 13.3439C8.55952 12.053 9.5797 10.931 10.7921 10.0459C12.0046 9.16088 13.3841 8.53113 14.8471 8.19484C16.3101 7.85856 17.8261 7.82274 19.3033 8.08955C20.7805 8.35636 22.1882 8.92026 23.4411 9.74708C23.5462 9.81519 23.9686 9.67854 23.8336 9.54025Z" fill="#218455"/>
<path d="M24.3608 7.93324C22.6552 6.91164 20.3882 7.27542 18.5991 7.8153C18.5866 7.81905 18.5779 7.82404 18.5667 7.82817C18.5576 7.83068 18.5476 7.8315 18.5389 7.83441C14.2493 9.3282 9.38794 13.4267 9.75547 18.4135C9.76544 18.5493 10.1803 18.4218 10.2123 18.3189C11.2177 15.0721 13.812 12.5795 16.7602 11.0259C19.722 9.46485 24.8936 8.98226 25.6262 13.2473C25.6499 13.3835 26.0569 13.261 26.0826 13.1522C26.5693 11.0994 26.2907 9.08901 24.3608 7.93324Z" fill="#AECCBA"/>
<path d="M24.4943 13.7889C24.1716 13.4081 24.0761 13.2993 23.7347 12.938C23.6235 12.82 23.2086 12.9272 23.3228 13.1169C24.366 14.8209 24.8708 16.8 24.771 18.7955C24.6712 20.7909 23.9715 22.7098 22.7634 24.3011C21.2791 26.2954 18.9531 27.5063 16.5365 27.8971C13.9816 28.3099 11.4882 27.3377 9.22366 26.2622C9.08122 26.1944 8.71077 26.3087 8.88146 26.5001C12.2931 30.3216 18.3235 31.2635 22.5184 28.0761C23.5959 27.2751 24.5031 26.2675 25.187 25.1121C25.8709 23.9568 26.3179 22.6767 26.5018 21.3468C26.6858 20.0168 26.603 18.6635 26.2583 17.3659C25.9136 16.0683 25.314 14.8523 24.4943 13.7889Z" fill="#87888A"/>
<path d="M21.7006 17.7183C21.6749 17.5755 21.2608 17.6282 21.2355 17.7549C20.7313 20.3168 19.1711 22.4476 17.2317 24.1391C14.7254 26.3244 9.07286 28.4262 7.7647 23.9859C7.71861 23.8285 7.31453 23.9003 7.29542 24.0515C6.72565 28.5911 10.673 29.6874 14.2781 28.3863C18.1005 27.0067 21.7683 22.9215 21.8281 18.7362C21.8232 18.3933 21.7804 18.0519 21.7006 17.7183Z" fill="#C7C7C8"/>
</g>
<defs>
<clipPath id="clip0_57_1213">
<rect width="131" height="24" fill="white" transform="translate(4 6)"/>
</clipPath>
</defs>
</svg>
