<svg width="25" height="24" viewBox="0 0 25 24" fill="none" xmlns="http://www.w3.org/2000/svg">
<path d="M4 4.70666C4 4.04024 4.54024 3.5 5.20666 3.5H19.7933C20.4598 3.5 21 4.04024 21 4.70666V19.2933C21 19.9597 20.4598 20.5 19.7933 20.5H5.20667C4.54024 20.5 4 19.9597 4 19.2933V4.70666Z" fill="#0A66C2"/>
<path d="M7.81581 8.77957C8.63029 8.77957 9.29056 8.1193 9.29056 7.30482C9.29056 6.49034 8.63029 5.83008 7.81581 5.83008C7.00133 5.83008 6.34106 6.49034 6.34106 7.30482C6.34106 8.1193 7.00133 8.77957 7.81581 8.77957Z" fill="white"/>
<path d="M10.6412 9.86945H13.0853V10.9891C13.0853 10.9891 13.7486 9.66262 15.5532 9.66262C17.1629 9.66262 18.4965 10.4556 18.4965 12.8728V17.97H15.9637V13.4905C15.9637 12.0646 15.2024 11.9077 14.6223 11.9077C13.4184 11.9077 13.2123 12.9461 13.2123 13.6765V17.97H10.6412V9.86945Z" fill="white"/>
<path d="M6.53024 9.86946H9.10139V17.97H6.53024V9.86946Z" fill="white"/>
</svg>
