<svg width="107" height="77" viewBox="0 0 107 77" fill="none" xmlns="http://www.w3.org/2000/svg">
<path d="M97.7242 60.7039C84.3242 73.3039 65.0242 77.6039 47.1242 76.2039C33.3242 75.0039 19.2242 70.3039 9.32418 60.4039C0.724181 52.1039 -3.87582 36.6039 5.32418 27.2039C13.3242 19.5039 24.4242 16.8039 34.3242 12.4039C46.0242 8.70389 56.5242 -0.296113 69.3242 0.603887C95.9242 2.70389 120.524 39.6039 97.7242 60.7039Z" fill="#716558"/>
<path d="M92.8242 44.0032C92.8242 46.6032 92.8242 49.3032 92.8242 51.9032C92.8242 52.2032 92.7242 52.5032 92.6242 52.8032C92.2242 53.5032 91.5242 53.8032 90.7242 53.6032C90.0242 53.4032 89.5242 52.8032 89.5242 52.1032C89.5242 50.5032 89.5242 49.0032 89.5242 47.4032C89.5242 47.2032 89.5242 47.1032 89.5242 46.9032C89.4242 46.4032 89.1242 46.1032 88.5242 46.0032C88.1242 45.9032 87.7242 45.9032 87.3242 46.0032C86.6242 46.1032 86.2242 46.6032 86.2242 47.3032C86.2242 47.9032 86.2242 48.4032 86.2242 49.0032C86.2242 50.7032 86.2242 52.5032 86.2242 54.2032C86.2242 56.5032 84.6242 58.7032 81.9242 59.1032C81.6242 59.1032 81.3242 59.1032 81.0242 59.1032C80.2242 59.0032 79.6242 58.4032 79.6242 57.6032C79.5242 56.8032 80.1242 56.1032 80.8242 55.9032C81.0242 55.9032 81.2242 55.8032 81.4242 55.8032C82.3242 55.8032 82.9242 55.2032 83.0242 54.3032C83.0242 54.2032 83.0242 54.1032 83.0242 53.9032C83.0242 48.1032 83.0242 42.3032 83.0242 36.5032C83.0242 34.4032 84.5242 32.1032 87.0242 31.7032C90.2242 31.2032 92.3242 33.3032 92.7242 35.7032C92.7242 36.0032 92.7242 36.2032 92.7242 36.5032C92.8242 38.9032 92.8242 41.4032 92.8242 44.0032ZM86.3242 38.7032C86.3242 39.5032 86.3242 40.3032 86.3242 41.1032C86.3242 41.9032 87.0242 42.5032 87.7242 42.5032C87.9242 42.5032 88.1242 42.5032 88.3242 42.5032C89.1242 42.5032 89.6242 42.0032 89.6242 41.2032C89.6242 39.6032 89.6242 37.9032 89.6242 36.3032C89.6242 35.3032 88.9242 34.7032 87.9242 34.7032C86.9242 34.7032 86.3242 35.4032 86.3242 36.3032C86.3242 37.1032 86.3242 37.9032 86.3242 38.7032Z" fill="white"/>
<path d="M47.624 42.1031C47.624 45.3031 47.624 48.5031 47.624 51.6031C47.624 51.8031 47.624 51.9031 47.624 52.1031C47.524 53.0031 46.924 53.6031 46.024 53.6031C45.124 53.6031 44.424 53.0031 44.324 52.1031C44.324 51.9031 44.324 51.7031 44.324 51.5031C44.324 45.4031 44.324 39.4031 44.324 33.3031C44.324 31.8031 43.224 30.4031 41.424 30.3031C38.724 30.2031 36.224 29.4031 33.824 28.1031C33.124 27.8031 32.824 27.1031 32.924 26.5031C33.024 25.8031 33.524 25.3031 34.224 25.1031C34.624 25.0031 35.024 25.1031 35.424 25.3031C36.824 26.0031 38.324 26.6031 39.824 26.9031C41.724 27.3031 43.724 27.3031 45.624 26.7031C46.224 26.5031 46.824 26.2031 47.424 26.0031C49.724 25.2031 52.024 24.7031 54.524 24.7031C56.624 24.7031 58.624 24.9031 60.624 25.5031C60.824 25.6031 61.024 25.6031 61.324 25.7031C62.124 26.0031 62.524 26.9031 62.224 27.7031C61.924 28.6031 61.024 29.0031 60.224 28.7031C59.124 28.3031 58.024 28.1031 56.824 28.0031C54.724 27.8031 52.624 27.9031 50.524 28.4031C49.324 28.7031 48.524 29.6031 48.024 30.8031C47.824 31.3031 47.724 31.8031 47.724 32.4031C47.624 35.6031 47.624 38.9031 47.624 42.1031Z" fill="white"/>
<path d="M27.6242 45.1035C27.6242 48.1035 27.6242 51.1035 27.6242 54.1035C27.6242 54.8035 28.0242 55.4035 28.7242 55.6035C28.9242 55.7035 29.1242 55.6035 29.3242 55.7035C30.1242 55.7035 30.7242 56.2035 30.9242 56.9035C31.2242 57.9035 30.4242 58.9035 29.4242 58.9035C26.4242 59.1035 24.3242 56.6035 24.3242 54.1035C24.3242 48.3035 24.3242 42.5035 24.3242 36.7035C24.3242 36.5035 24.3242 36.3035 24.3242 36.2035C24.3242 35.4035 23.6242 34.8035 22.8242 34.8035C22.5242 34.8035 22.1242 34.8035 21.8242 34.8035C21.3242 34.8035 21.1242 35.1035 21.1242 35.5035C21.1242 35.6035 21.1242 35.7035 21.1242 35.8035C21.1242 41.1035 21.1242 46.4035 21.1242 51.7035C21.1242 51.9035 21.1242 52.2035 21.0242 52.4035C20.8242 53.1035 20.2242 53.5035 19.5242 53.6035C18.8242 53.6035 18.1242 53.2035 17.9242 52.5035C17.8242 52.3035 17.8242 52.0035 17.8242 51.8035C17.8242 46.0035 17.8242 40.2035 17.8242 34.4035C17.8242 33.3035 18.2242 32.5035 19.1242 31.9035C19.5242 31.7035 19.9242 31.6035 20.3242 31.6035C21.2242 31.6035 22.1242 31.6035 23.0242 31.6035C25.2242 31.6035 27.2242 33.4035 27.5242 35.6035C27.5242 35.9035 27.6242 36.2035 27.6242 36.5035C27.6242 39.3035 27.6242 42.2035 27.6242 45.1035Z" fill="white"/>
<path d="M64.1244 42.8035C64.1244 39.8035 64.1244 36.9035 64.1244 33.9035C64.1244 32.9035 64.8244 31.8035 65.9244 31.5035C66.1244 31.4035 66.4244 31.4035 66.6244 31.4035C67.4244 31.4035 68.2244 31.4035 69.0244 31.4035C71.0244 31.3035 72.9244 32.7035 73.6244 34.7035C73.8244 35.2035 73.9244 35.8035 73.9244 36.3035C73.9244 37.2035 73.9244 38.0035 73.9244 38.9035C73.9244 40.7035 73.1244 42.1035 71.5244 43.0035C71.0244 43.3035 70.9244 43.7035 71.1244 44.2035C71.4244 45.1035 71.8244 46.0035 72.1244 46.9035C72.7244 48.3035 73.2244 49.8035 73.7244 51.2035C74.0244 52.1035 73.7244 52.9035 72.9244 53.3035C72.1244 53.7035 71.1244 53.3035 70.7244 52.4035C70.4244 51.8035 70.2244 51.2035 70.0244 50.5035C69.3244 48.7035 68.6244 46.9035 67.9244 45.0035C67.8244 44.7035 67.7244 44.6035 67.5244 44.7035C67.3244 44.7035 67.2244 44.8035 67.2244 45.0035C67.2244 45.1035 67.2244 45.2035 67.2244 45.3035C67.2244 47.4035 67.2244 49.4035 67.2244 51.5035C67.2244 52.3035 66.8244 52.9035 66.1244 53.1035C65.1244 53.4035 64.0244 52.7035 64.0244 51.6035C64.0244 50.6035 64.0244 49.6035 64.0244 48.6035C64.1244 46.8035 64.1244 44.8035 64.1244 42.8035ZM67.3244 37.3035C67.3244 37.8035 67.3244 38.4035 67.3244 38.9035C67.3244 40.2035 68.6244 40.9035 69.8244 40.4035C70.3244 40.2035 70.6244 39.7035 70.6244 39.2035C70.6244 38.2035 70.6244 37.3035 70.6244 36.3035C70.6244 35.5035 69.9244 34.8035 69.1244 34.8035C68.8244 34.8035 68.4244 34.8035 68.1244 34.8035C67.6244 34.8035 67.3244 35.1035 67.3244 35.6035C67.3244 36.1035 67.3244 36.7035 67.3244 37.3035Z" fill="white"/>
<path d="M60.724 43.9037C60.724 46.5037 60.724 49.2037 60.724 51.8037C60.724 52.0037 60.724 52.3037 60.624 52.5037C60.424 53.2037 59.624 53.7037 58.924 53.6037C58.124 53.5037 57.524 52.9037 57.524 52.1037C57.524 52.0037 57.524 51.9037 57.524 51.8037C57.524 50.3037 57.524 48.8037 57.524 47.2037C57.524 46.3037 57.024 45.8037 56.124 45.8037C55.824 45.8037 55.524 45.8037 55.324 45.8037C54.724 45.9037 54.324 46.3037 54.324 46.9037C54.324 47.1037 54.324 47.2037 54.324 47.4037C54.324 48.9037 54.324 50.4037 54.324 51.9037C54.324 52.3037 54.224 52.7037 54.024 53.0037C53.624 53.6037 52.924 53.8037 52.224 53.6037C51.524 53.4037 51.124 52.8037 51.124 52.1037C51.124 52.0037 51.124 51.9037 51.124 51.8037C51.124 46.7037 51.124 41.5037 51.124 36.4037C51.124 34.1037 52.724 32.0037 55.124 31.6037C58.324 31.1037 60.424 33.2037 60.824 35.5037C60.924 35.8037 60.924 36.1037 60.924 36.4037C60.724 38.8037 60.724 41.4037 60.724 43.9037ZM57.424 38.7037C57.424 37.9037 57.424 37.1037 57.424 36.3037C57.424 35.4037 56.824 34.8037 55.924 34.7037C54.924 34.7037 54.124 35.2037 54.124 36.1037C54.124 37.8037 54.124 39.5037 54.124 41.3037C54.124 42.0037 54.724 42.5037 55.424 42.5037C55.624 42.5037 55.724 42.5037 55.924 42.5037C56.824 42.5037 57.324 42.0037 57.324 41.1037C57.424 40.3037 57.424 39.5037 57.424 38.7037Z" fill="white"/>
<path d="M31.0244 41.1039C31.0244 38.5039 31.0244 36.0039 31.0244 33.4039C31.0244 33.2039 31.0244 32.9039 31.1244 32.7039C31.3244 32.0039 32.0244 31.5039 32.7244 31.5039C33.4244 31.5039 34.0244 32.0039 34.2244 32.8039C34.2244 33.0039 34.3244 33.2039 34.3244 33.5039C34.3244 38.6039 34.3244 43.7039 34.3244 48.9039C34.3244 49.6039 34.7244 50.2039 35.4244 50.4039C35.8244 50.5039 36.2244 50.5039 36.6244 50.4039C37.2244 50.2039 37.5244 49.7039 37.6244 49.1039C37.6244 48.9039 37.6244 48.8039 37.6244 48.6039C37.6244 44.1039 37.6244 39.6039 37.6244 35.1039C37.6244 34.7039 37.7244 34.3039 38.0244 34.0039C38.4244 33.5039 39.1244 33.2039 39.8244 33.4039C40.5244 33.6039 40.9244 34.2039 41.0244 34.9039C41.0244 35.0039 41.0244 35.0039 41.0244 35.1039C41.0244 39.7039 41.0244 44.3039 41.0244 48.9039C41.0244 51.2039 39.4244 53.2039 37.1244 53.7039C34.0244 54.3039 31.8244 52.3039 31.3244 50.0039C31.2244 49.6039 31.2244 49.2039 31.2244 48.8039C31.0244 46.1039 31.0244 43.6039 31.0244 41.1039Z" fill="white"/>
<path d="M76.3242 42.504C76.3242 39.404 76.3242 36.304 76.3242 33.204C76.3242 32.604 76.5242 32.104 77.0242 31.804C77.5242 31.404 78.1242 31.404 78.7242 31.604C79.3242 31.904 79.6242 32.404 79.6242 33.004C79.6242 33.104 79.6242 33.204 79.6242 33.304C79.6242 39.504 79.6242 45.604 79.6242 51.804C79.6242 52.404 79.5242 52.804 79.0242 53.204C78.5242 53.604 77.9242 53.704 77.3242 53.504C76.7242 53.304 76.4242 52.804 76.3242 52.104C76.3242 52.004 76.3242 51.904 76.3242 51.704C76.3242 48.704 76.3242 45.604 76.3242 42.504Z" fill="white"/>
<path d="M60.7243 57.1037C60.8243 58.1037 60.1243 58.6037 59.5243 58.8037C58.5243 59.1037 57.5243 58.4037 57.4243 57.4037C57.4243 57.1037 57.4243 56.8037 57.5243 56.5037C57.7243 55.7037 58.5243 55.2037 59.3243 55.3037C60.1243 55.4037 60.7243 56.1037 60.7243 56.9037C60.7243 57.0037 60.7243 57.1037 60.7243 57.1037Z" fill="white"/>
<path d="M54.1243 57.1024C54.2243 58.2024 53.3243 58.8024 52.6243 58.9024C51.8243 58.9024 51.0243 58.4024 50.9243 57.6024C50.8243 57.0024 50.8243 56.4024 51.3243 56.0024C51.8243 55.5024 52.4243 55.3024 53.1243 55.5024C53.7243 55.7024 54.2243 56.3024 54.2243 57.0024C54.1243 57.0024 54.1243 57.1024 54.1243 57.1024Z" fill="white"/>
</svg>
